<svg><defs><font id="iconfont" horiz-adv-x="1024"><font-face font-family="iconfont" font-weight="500" units-per-em="1024" ascent="896" descent="-128"/><glyph glyph-name="x" unicode="x" horiz-adv-x="1001" d="M281 543q-27-1-53-1h-83q-18 0-36.5-6T76 517.5t-23-32-9-45.5v-76h912v41q0 16-.5 30t-.5 18q0 13-5 29t-17 29.5-31.5 22.5-49.5 9H719v-97H281v97zm674-233v-52q0-23 .5-52t.5-58-10.5-47.5-26-30-33-16T855 50q-14-1-29.5-.5T796 50h-32l-45 128H280L236 50h-63q-20 0-45 1-25 0-41 9.5t-25.5 23T48 113t-4 30v167h911zm-792-63q-12 0-21-8.5t-9-21.5 9-21.5 21-8.5q13 0 22 8.5t9 21.5-9 21.5-22 8.5zm153-124q-8-26-14-48-5-19-10.5-37T284 13t-3-15 1-14.5 9.5-10.5 21.5-4h365q23 0 34 12t2 38q-5 13-9.5 30.5T695 84q-5 19-11 39H316zm20 375v228q0 11 2.5 23t10 21.5T369 786t34 6h188q31 0 51.5-14.5T663 725V498H336z"/><glyph glyph-name="smiley" unicode="" d="M510.592 702.848c-176.768 0-320-143.232-320-320 0-176.64 143.232-320 320-320 176.64 0 320 143.36 320 320 0 176.768-143.36 320-320 320zm120.064-160c22.144 0 40.064-26.88 40.064-60.032s-17.92-60.032-40.064-60.032-40.064 26.88-40.064 60.032c0 33.28 17.92 60.032 40.064 60.032zm-240 0c22.144 0 40.064-26.88 40.064-60.032s-17.92-60.032-40.064-60.032-40.064 26.88-40.064 60.032c0 33.28 17.92 60.032 40.064 60.032zm119.936-413.44c-173.184 0-248.32 101.248-266.24 258.432-1.28 11.008 10.624 18.688 20.224 13.056 73.6-42.88 157.824-67.072 246.016-67.072s172.416 24.192 246.016 67.072c9.6 5.632 21.504-2.048 20.224-13.056-17.92-157.184-93.056-258.432-266.24-258.432z" horiz-adv-x="1024"/><glyph glyph-name="coin" unicode="" d="M510.592 702.848c-176.768 0-320-143.232-320-320s143.232-320 320-320 320 143.232 320 320-143.232 320-320 320zm16.896-502.528l-.128-61.568h-37.248v59.264c-34.432.64-69.376 11.392-90.112 26.112l14.208 39.68c20.736-13.696 51.584-25.472 84.736-25.472 42.112 0 66.688 24.192 66.688 58.112 0 32.512-19.328 52.736-63.104 70.528-60.416 23.68-97.792 51.584-97.664 103.04 0 49.152 34.816 86.4 88.832 95.36v59.264h37.376l-.128-57.6c35.072-1.152 59.264-10.624 77.056-20.736l-14.72-39.04C580.864 514.304 556.544 528 518.528 528c-45.568 0-58.88-27.264-58.88-51.584 0-30.208 18.048-45.568 69.632-67.456 61.056-24.96 91.776-55.168 91.776-107.904 0-47.36-32.512-91.264-93.568-100.736z" horiz-adv-x="1024"/><glyph glyph-name="customer-service" unicode="" d="M895.744 535.168C837.504 693.504 687.104 806.4 510.848 806.4S184.32 693.504 125.952 535.168C57.856 526.208 5.12 467.84 5.12 397.312c0-68.48 49.408-125.184 114.432-136.832 26.88-5.888 56.576-3.712 56.576-3.712-15.488 40.832-24.064 85.248-24.064 131.584 0 201.6 160.64 364.928 358.784 364.928s358.784-163.456 358.784-365.056c0-150.144-89.088-279.04-216.448-335.104-9.472 8.832-22.144 14.464-36.224 14.464-29.184 0-52.864-23.68-52.864-52.864 0-29.184 23.68-52.864 52.864-52.864 24.96 0 45.824 17.152 51.456 40.32 110.592 46.72 196.992 141.312 233.856 258.176 65.024 11.648 114.432 68.48 114.432 136.832 0 70.656-52.736 128.896-120.96 137.984zm-64.896-147.584c0 176.768-143.36 320-320 320-176.768 0-320-143.232-320-320 0-176.64 143.232-320 320-320 176.64 0 320 143.36 320 320zm-320-253.44c-173.184 0-248.32 101.248-266.24 258.432-1.28 11.008 10.624 18.688 20.224 13.056 73.6-42.88 157.824-67.072 246.016-67.072s172.416 24.192 246.016 67.072c9.6 5.632 21.504-2.048 20.224-13.056-17.92-157.184-93.056-258.432-266.24-258.432z" horiz-adv-x="1024"/><glyph glyph-name="question" unicode="" d="M510.592 702.848c-176.768 0-320-143.232-320-320s143.232-320 320-320 320 143.232 320 320-143.232 320-320 320zm-2.048-542.208c-19.2 0-34.688 15.488-34.688 34.688 0 19.2 15.488 34.688 34.688 34.688 19.2 0 34.688-15.488 34.688-34.688 0-19.2-15.488-34.688-34.688-34.688zm125.568 280.704c-6.272-13.184-19.712-29.696-40.192-49.408s-34.176-33.792-40.832-42.112c-6.656-8.32-11.776-18.304-15.232-29.824-3.456-11.52-4.992-27.136-4.608-46.592h-53.632c0 22.784 1.792 40.96 5.504 54.528 3.712 13.568 9.216 25.472 16.512 35.712 7.296 10.112 20.48 25.088 39.68 44.8 19.072 19.712 31.36 34.048 36.864 43.008 5.504 8.96 8.192 22.272 8.192 39.936s-6.272 33.28-18.944 46.976c-12.544 13.568-30.848 20.48-54.912 20.48-54.016 0-81.152-32.128-81.152-96.384h-53.632c.768 29.312 4.224 51.456 10.368 66.816 6.144 15.232 15.872 28.8 29.312 40.832 13.44 12.032 28.288 20.864 44.8 26.496 16.512 5.632 33.792 8.576 52.096 8.576 36.992 0 67.712-10.88 92.416-32.64 24.576-21.76 36.864-50.688 36.864-86.912-.128-16.384-3.2-31.104-9.472-44.288z" horiz-adv-x="1024"/><glyph glyph-name="WX_PAY" unicode="" d="M894.293 861.867H129.707c-52.566 0-95.574-43.008-95.574-95.574V1.707c0-52.566 43.008-95.574 95.574-95.574h764.586c52.566 0 95.574 43.008 95.574 95.574v764.586c0 52.566-43.008 95.574-95.574 95.574zM512 44.032c-53.248 0-104.448 8.875-151.552 25.259-30.037-19.798-79.872-52.566-99.67-61.44-28.671-13.654-20.48 15.701-20.48 15.701l17.067 98.304C163.157 188.075 102.4 289.792 102.4 403.797c0 198.656 183.637 359.766 409.6 359.766 138.581 0 260.779-60.758 335.19-152.918L445.098 424.277s-32.768-12.288-61.44 4.779c-28.672 17.75-66.902 46.421-66.902 46.421s-44.373 37.547-20.48-30.72l61.44-144.042s7.51-43.008 55.979-15.702c38.23 21.163 335.872 200.704 464.213 278.528 27.307-48.469 43.008-102.4 43.008-159.744C921.6 205.141 737.963 44.032 512 44.032z" horiz-adv-x="1024"/><glyph glyph-name="ZHB_PAY" unicode="" d="M989.867 211.968v554.325c0 52.566-43.008 95.574-95.574 95.574H129.707c-52.566 0-95.574-43.008-95.574-95.574V1.707c0-52.566 43.008-95.574 95.574-95.574h764.586c52.566 0 95.574 43.008 95.574 95.574v58.026L616.448 235.18S520.192 55.637 314.027 55.637 103.083 205.824 103.083 205.824s-15.702 98.304 86.016 153.6c101.717 55.296 162.474 50.517 392.533-12.288 33.45 64.17 45.739 124.928 45.739 124.928h-358.4v47.787H460.8v48.469H221.184v47.787h240.299v96.256h96.256v-96.256h240.298V568.32H557.056v-48.47h191.147s-34.816-154.282-75.776-203.434c163.157-57.344 317.44-104.448 317.44-104.448zM299.008 332.8c-88.747-9.557-160.427-43.008-160.427-109.227s85.334-103.082 165.206-103.082 138.581 47.104 226.645 150.869c0 .683-141.995 70.997-231.424 61.44z" horiz-adv-x="1024"/><glyph glyph-name="BANK_PAY" unicode="" d="M607.573 533.504L512 409.941l-95.573 123.563h-54.614l122.88-162.475h-75.776V332.8h80.555v-44.373h-80.555v-38.912h80.555v-96.256h45.056v96.256h80.555v38.912h-80.555V332.8h80.555v38.23h-75.776l122.88 162.474zm286.72 328.363H129.707c-52.566 0-95.574-43.008-95.574-95.574V1.707c0-52.566 43.008-95.574 95.574-95.574h764.586c52.566 0 95.574 43.008 95.574 95.574v764.586c0 52.566-43.008 95.574-95.574 95.574zM921.6 39.936H102.4v43.008h57.344v43.008h36.181V547.84h-49.152v49.152L486.06 728.064h53.248l339.285-131.072V547.84H829.44V126.635h35.499V83.627h57.344V39.936z" horiz-adv-x="1024"/><glyph glyph-name="DICE_2" unicode="" d="M256 537.6c-56.32 0-102.4 46.08-102.4 102.4S199.68 742.4 256 742.4 358.4 696.32 358.4 640 312.32 537.6 256 537.6zm512-512c-56.32 0-102.4 46.08-102.4 102.4S711.68 230.4 768 230.4 870.4 184.32 870.4 128 824.32 25.6 768 25.6z" horiz-adv-x="1024"/><glyph glyph-name="DICE_1" unicode="" d="M512 281.6c-56.32 0-102.4 46.08-102.4 102.4S455.68 486.4 512 486.4 614.4 440.32 614.4 384 568.32 281.6 512 281.6z" horiz-adv-x="1024"/><glyph glyph-name="DICE_3" unicode="" d="M256 537.6c-56.32 0-102.4 46.08-102.4 102.4S199.68 742.4 256 742.4 358.4 696.32 358.4 640 312.32 537.6 256 537.6zm256-256c-56.32 0-102.4 46.08-102.4 102.4S455.68 486.4 512 486.4 614.4 440.32 614.4 384 568.32 281.6 512 281.6zm256-256c-56.32 0-102.4 46.08-102.4 102.4S711.68 230.4 768 230.4 870.4 184.32 870.4 128 824.32 25.6 768 25.6z" horiz-adv-x="1024"/><glyph glyph-name="DICE_4" unicode="" d="M256 25.6c-56.32 0-102.4 46.08-102.4 102.4S199.68 230.4 256 230.4 358.4 184.32 358.4 128 312.32 25.6 256 25.6zm0 512c-56.32 0-102.4 46.08-102.4 102.4S199.68 742.4 256 742.4 358.4 696.32 358.4 640 312.32 537.6 256 537.6zm512-512c-56.32 0-102.4 46.08-102.4 102.4S711.68 230.4 768 230.4 870.4 184.32 870.4 128 824.32 25.6 768 25.6zm0 512c-56.32 0-102.4 46.08-102.4 102.4S711.68 742.4 768 742.4 870.4 696.32 870.4 640 824.32 537.6 768 537.6z" horiz-adv-x="1024"/><glyph glyph-name="DICE_5" unicode="" d="M256 25.6c-56.32 0-102.4 46.08-102.4 102.4S199.68 230.4 256 230.4 358.4 184.32 358.4 128 312.32 25.6 256 25.6zm0 512c-56.32 0-102.4 46.08-102.4 102.4S199.68 742.4 256 742.4 358.4 696.32 358.4 640 312.32 537.6 256 537.6zm256-256c-56.32 0-102.4 46.08-102.4 102.4S455.68 486.4 512 486.4 614.4 440.32 614.4 384 568.32 281.6 512 281.6zm256-256c-56.32 0-102.4 46.08-102.4 102.4S711.68 230.4 768 230.4 870.4 184.32 870.4 128 824.32 25.6 768 25.6zm0 512c-56.32 0-102.4 46.08-102.4 102.4S711.68 742.4 768 742.4 870.4 696.32 870.4 640 824.32 537.6 768 537.6z" horiz-adv-x="1024"/><glyph glyph-name="DICE_6" unicode="" d="M153.6 640c0 56.32 46.08 102.4 102.4 102.4S358.4 696.32 358.4 640 312.32 537.6 256 537.6 153.6 583.68 153.6 640zm512 0c0 56.32 46.08 102.4 102.4 102.4S870.4 696.32 870.4 640 824.32 537.6 768 537.6 665.6 583.68 665.6 640zm-512-256c0 56.32 46.08 102.4 102.4 102.4S358.4 440.32 358.4 384 312.32 281.6 256 281.6 153.6 327.68 153.6 384zm512 0c0 56.32 46.08 102.4 102.4 102.4S870.4 440.32 870.4 384 824.32 281.6 768 281.6 665.6 327.68 665.6 384zm-512-256c0 56.32 46.08 102.4 102.4 102.4S358.4 184.32 358.4 128 312.32 25.6 256 25.6 153.6 71.68 153.6 128zm512 0c0 56.32 46.08 102.4 102.4 102.4S870.4 184.32 870.4 128 824.32 25.6 768 25.6 665.6 71.68 665.6 128z" horiz-adv-x="1024"/><glyph glyph-name="POKER_NUM_05" unicode="" d="M383.659 600.405l-10.923-148.821c48.47 33.45 101.717 50.517 159.744 50.517 69.632 0 124.245-18.432 164.523-55.296s60.074-87.381 60.074-151.552c0-69.632-23.893-125.61-72.362-168.618C636.928 83.627 574.123 61.78 496.299 61.78c-64.171 0-118.102 15.702-162.475 47.104-44.373 31.403-66.219 69.632-66.219 114.688 0 22.528 6.827 40.96 21.163 55.979 14.336 15.019 31.403 22.528 51.883 22.528 16.384 0 29.354-4.779 39.594-13.653 10.24-9.558 15.702-21.846 15.702-37.547 0-10.24-3.414-19.797-10.923-27.307-6.827-7.509-15.701-11.605-25.259-11.605-7.509-.683-10.922-2.73-10.922-6.827 0-20.48 16.384-38.912 49.152-55.296s68.949-24.576 109.226-24.576c49.835 0 90.112 15.702 122.198 45.739 32.085 30.72 47.786 69.632 47.786 117.419 0 45.738-13.653 81.92-40.277 108.544-27.307 26.624-64.17 39.594-111.275 39.594-58.026 0-103.765-17.066-137.898-50.517-13.654-12.97-23.211-21.845-28.672-25.259-5.462-4.096-12.971-6.826-21.163-8.192h-3.413c-23.894 0-36.182 13.654-36.182 40.96 0 1.366 0 2.731.683 3.414l13.653 179.541c.683 10.24 1.366 27.307 2.048 51.2.683 34.133 2.731 55.296 7.51 62.805 4.096 7.51 15.701 11.606 34.133 11.606h230.059c17.749 0 31.402 0 40.96.682 18.432 1.366 31.402 2.048 38.229 2.048 24.576 0 36.864-18.432 36.864-54.613l-.683-6.827c0-16.384 2.731-34.816 7.51-56.661 2.73-7.51 3.413-14.336 3.413-20.48 0-19.797-10.24-30.037-31.403-30.037-19.797 0-30.037 14.336-31.402 43.69-1.366 34.816-16.384 51.883-45.739 51.883H409.6c-15.701 2.048-23.893-8.875-25.941-31.403z" horiz-adv-x="1024"/><glyph glyph-name="POKER_NUM_02" unicode="" d="M355.67 242.688c-13.654-16.384-22.529-35.499-25.26-58.71 27.99 30.038 61.44 44.374 101.718 44.374 36.864 0 75.093-16.384 115.37-48.47 44.374-35.498 79.19-53.247 103.083-53.247 17.067 0 31.403 5.461 42.326 17.066 10.922 11.606 16.384 25.942 16.384 44.374 0 6.144-1.366 12.97-3.414 20.48-10.24-10.24-21.162-15.019-33.45-15.019-26.624 0-40.278 12.97-40.278 38.912 0 14.336 5.462 25.941 15.702 35.499 10.24 9.557 24.576 13.653 41.642 13.653 23.211 0 41.643-8.192 55.296-24.576 13.654-16.384 21.163-38.23 21.163-65.536 0-38.23-12.288-71.68-36.181-98.987s-53.931-40.96-88.064-40.96c-32.768 0-72.363 17.75-118.784 53.248-46.422 35.499-86.699 53.248-121.515 53.248s-56.661-12.288-64.853-37.546h10.922c17.75 0 27.307-8.875 27.307-27.307 0-27.99-15.701-41.643-46.421-41.643-20.48 0-36.864 8.875-49.835 26.624-12.97 17.75-19.115 41.643-19.115 70.998 0 108.544 74.411 187.05 224.598 234.837l66.901 21.163c75.093 23.893 112.64 64.853 112.64 122.197 0 38.23-13.653 68.95-40.277 91.477-27.307 22.528-64.171 33.451-111.275 33.451-41.643 0-75.776-8.192-103.083-25.259s-43.69-39.594-48.469-68.949c33.45-2.73 50.517-17.067 50.517-43.69 0-16.385-6.144-30.038-17.749-41.643-11.605-11.606-26.624-17.067-43.69-17.067-21.163 0-38.23 7.51-50.518 21.845-12.97 14.336-19.115 33.451-19.115 57.344 0 51.2 23.211 93.526 68.95 127.659 45.738 34.133 102.4 51.2 169.984 51.2 65.536 0 119.466-17.067 161.792-51.883 41.642-34.133 62.805-79.189 62.805-133.802 0-37.547-10.24-70.315-30.037-98.987-20.48-28.672-48.47-49.835-83.968-64.17-10.923-4.097-48.47-17.067-111.958-38.913-45.056-15.701-81.92-30.72-108.544-44.373-22.528-8.875-39.594-22.528-53.248-38.912z" horiz-adv-x="1024"/><glyph glyph-name="POKER_NUM_03" unicode="" d="M448.512 444.075l193.195 189.781H425.984c-23.893 0-40.277-1.365-48.47-4.779-15.7-4.778-23.21-17.066-23.21-36.181 0-6.144.683-15.019 2.048-27.307 1.365-11.605 2.048-20.48 2.048-27.306 0-32.086-10.923-48.47-32.768-48.47-21.163 0-31.403 13.654-31.403 40.278 0 7.509.683 18.432 1.366 34.133.682 15.019 1.365 26.624 1.365 34.133v67.584c0 17.067 3.413 27.307 9.557 31.403s21.846 6.144 46.422 6.144h227.328c12.288 0 33.45.683 62.805 2.048 15.019.683 32.085.683 51.883.683 36.181 0 54.613-10.923 54.613-33.451 0-14.336-7.51-28.672-23.21-43.69l-171.35-163.84h27.307c52.565 0 96.256-17.067 129.706-50.518 34.134-34.133 50.518-77.141 50.518-129.707 0-65.536-23.894-119.466-72.363-161.109-47.787-41.643-109.91-62.123-185.685-62.123-69.632 0-127.659 17.067-174.08 50.518-46.422 33.45-69.632 76.458-69.632 126.976 0 29.354 8.192 53.93 25.258 73.728 17.067 20.48 37.547 30.037 62.123 30.037 16.384 0 29.355-4.779 39.595-14.336 10.24-9.557 15.018-21.845 15.018-37.547 0-30.72-18.432-46.421-54.613-46.421h-10.24v-6.827c0-30.72 17.067-56.661 50.517-79.189s73.728-33.45 119.467-33.45c51.2 0 93.525 15.018 126.293 44.373s49.152 66.901 49.152 113.322c0 80.555-45.738 120.832-137.898 120.832-23.894 0-49.152-2.73-75.094-8.192-5.461-1.365-10.922-2.048-15.701-2.048-15.019 0-22.528 8.192-22.528 23.894 1.365 8.192 6.144 16.384 16.384 26.624z" horiz-adv-x="1024"/><glyph glyph-name="POKER_NUM_01" unicode="" d="M651.264 177.152l-33.45 90.795c-3.414 10.24-7.51 16.384-11.606 18.432-4.096 2.73-12.288 3.413-24.576 3.413H416.427c-12.288 0-21.163-2.048-25.259-6.827-4.779-4.096-10.923-16.384-18.432-35.498l-27.307-71.68c-2.73-6.827-3.413-13.654-3.413-19.798 0-19.797 12.288-30.037 36.181-30.037 6.144 0 15.019.683 26.624 2.048 11.606 1.365 19.798 2.048 25.259 2.048 25.259 0 38.23-10.923 38.23-32.768 0-20.48-13.654-30.72-41.643-30.72-4.779 0-11.606.683-20.48 2.048l-46.422 4.779c-8.874.682-23.21 1.365-43.008 1.365-21.845 0-36.864-.683-45.738-1.365l-38.912-4.096c-17.067-2.048-30.038-2.731-38.23-2.731-23.893 0-36.181 10.24-36.181 30.72 0 21.845 11.605 32.768 35.499 32.768 4.778 0 8.874-1.365 10.922-3.413h12.288c17.067 0 29.355 6.826 38.23 19.797 3.413 4.779 10.24 19.797 18.432 43.69l173.397 469.675c10.24 25.942 29.355 38.912 58.71 38.912 28.671 0 47.786-12.97 56.66-38.912l166.571-461.482c10.24-29.355 20.48-48.47 28.672-58.027 8.875-9.557 21.163-13.653 37.547-13.653 4.779 0 8.875.682 10.923 1.365l25.941 2.73c23.893 0 35.499-10.24 35.499-30.72 0-21.845-11.606-32.767-35.499-32.767-6.827 0-15.701.682-27.307 2.048-38.912 4.096-68.266 6.826-87.381 6.826-23.21 0-60.075-2.048-111.957-6.826-12.971-1.366-23.211-1.366-30.038-1.366-24.576 0-37.546 10.24-37.546 31.403 0 21.163 13.653 31.403 40.96 31.403 5.461 0 13.653-.683 24.576-2.048 10.922-1.366 19.114-2.048 24.576-2.048 20.48 0 30.72 8.192 30.72 25.258.682 3.414-1.366 11.606-6.827 25.259zm-66.901 189.781l-83.286 256.683-86.016-256.683c-1.365-3.413-2.048-6.144-2.048-6.826 0-5.462 4.779-8.192 13.654-8.192h148.138c7.51 0 10.923 2.73 10.923 7.509.683 1.365 0 3.413-1.365 7.51z" horiz-adv-x="1024"/><glyph glyph-name="POKER_NUM_06" unicode="" d="M533.845 653.653c-55.978 0-101.034-23.21-135.85-70.314-34.816-47.104-54.614-110.592-58.71-191.147 38.912 67.584 103.766 101.035 193.878 101.035 67.584 0 122.88-19.798 165.888-59.392 43.008-39.595 64.17-90.795 64.17-152.918 0-66.218-23.21-120.832-68.949-163.84-45.739-43.008-105.13-64.17-176.81-64.17-79.19 0-141.995 26.624-187.734 79.189-45.739 52.565-68.267 124.928-68.267 215.723 0 111.957 25.259 201.386 75.094 267.605 50.517 66.219 118.101 98.987 202.752 98.987 51.882 0 96.256-12.971 133.12-38.912 36.864-25.942 54.613-58.027 54.613-94.891 0-17.067-6.144-32.085-18.432-44.373-12.288-12.288-25.941-18.432-42.325-18.432-12.971 0-24.576 4.778-34.134 14.336-9.557 9.557-14.336 21.162-14.336 34.816 0 18.432 8.875 30.72 25.942 37.546-17.75 32.768-54.614 49.152-109.91 49.152zM520.192 429.74c-50.517 0-90.112-13.654-118.784-41.643-29.355-27.307-43.69-64.853-43.69-111.957 0-48.47 15.018-86.699 44.373-116.054 29.354-28.672 68.949-43.008 117.418-43.008 47.787 0 86.699 15.019 116.736 44.374 30.038 30.037 45.056 68.266 45.056 115.37 0 45.739-15.018 82.603-44.373 110.592-29.355 28.672-68.95 42.326-116.736 42.326z" horiz-adv-x="1024"/><glyph glyph-name="POKER_NUM_04" unicode="" d="M645.803 640.683V319.829h109.909c20.48 0 30.72-10.24 30.72-31.402 0-21.163-10.923-31.403-32.768-31.403H645.803v-56.661c0-51.2 13.653-77.142 41.642-77.142 7.51 0 23.894 1.366 50.518 3.414 25.941 0 38.912-10.24 38.912-31.403 0-21.845-10.923-32.768-33.451-32.768-13.653 0-32.085 2.048-54.613 5.461-19.115 3.414-43.008 4.779-71.68 4.779-17.067 0-43.691-2.048-77.824-5.461-34.816-3.414-60.758-5.462-78.507-5.462-23.893 0-35.499 10.24-35.499 31.403 0 21.845 14.336 32.768 43.008 32.768 6.144 0 15.019-.683 27.307-2.048 12.288-1.365 21.163-2.048 27.307-2.048 30.72 0 46.421 25.941 46.421 77.141v56.662H280.576c-28.672 0-43.008 12.288-43.008 37.546 0 10.24 3.413 19.798 10.24 30.038L494.251 629.76c25.941 32.085 45.056 53.248 58.026 62.805 12.288 9.558 26.624 14.336 43.008 14.336 33.451-.682 50.518-22.528 50.518-66.218zm-317.44-321.536h240.981l6.827 304.469-247.808-304.47z" horiz-adv-x="1024"/><glyph glyph-name="POKER_NUM_07" unicode="" d="M333.141 655.019l-2.048-10.24c15.702 24.576 29.355 41.642 41.643 50.517s29.355 12.97 50.517 12.97c30.72 0 66.219-15.7 107.179-47.786 45.739-35.499 81.237-53.248 105.813-53.248 25.942 0 42.326 8.875 48.47 27.307h-7.51c-8.874 0-16.384 4.096-23.893 11.605-6.827 7.51-10.923 15.701-10.923 25.259 0 11.605 4.779 21.845 13.654 30.72 8.874 8.192 19.797 12.97 32.085 12.97 40.96 0 61.44-27.989 61.44-83.285 0-40.96-10.24-77.141-30.72-108.544-12.97-19.115-27.307-36.181-41.643-50.517-6.826-6.827-20.48-19.115-40.96-37.547-42.325-36.864-70.997-70.315-86.698-101.717-22.528-44.374-33.451-97.622-33.451-160.427 0 1.365 0-5.461.683-20.48 1.365-30.037 2.048-43.008 2.048-40.277 0-38.912-15.702-58.71-46.422-58.71-32.085 0-48.469 25.259-48.469 76.459 0 79.872 15.019 149.504 44.373 209.579 23.894 48.469 75.776 105.13 154.283 169.301 32.085 26.624 50.517 48.47 54.613 66.219-21.162-17.75-47.786-27.307-80.554-27.307-39.595 0-79.19 14.336-116.736 43.008l-38.23 28.672c-13.653 10.24-29.354 15.019-45.738 15.019-39.595 0-60.075-25.259-60.075-76.459 0-15.701 1.365-29.355 4.096-41.643 5.461-21.845 7.51-37.546 7.51-48.469s-3.414-19.797-10.923-27.307c-6.827-7.509-15.702-10.922-26.624-10.922-24.576 0-37.547 13.653-37.547 40.277 0 10.24 1.365 26.624 4.096 48.47 2.73 21.845 4.096 38.229 4.096 50.517 0 17.066-.683 36.181-2.73 55.978-2.049 19.798-2.731 37.547-2.731 51.883 0 25.259 10.922 38.23 32.768 38.23 17.749 0 27.306-10.923 27.306-32.769 1.366-4.778 0-13.653-2.048-27.306z" horiz-adv-x="1024"/><glyph glyph-name="POKER_NUM_08" unicode="" d="M328.363 390.827c16.384 12.288 37.546 23.893 64.853 33.45-34.133 19.115-57.344 37.547-69.632 55.296-12.288 17.75-18.432 40.278-18.432 68.267 0 47.104 19.797 86.699 60.075 118.784 40.277 32.085 89.429 47.787 147.456 47.787 58.026 0 107.178-15.702 147.456-47.787 40.277-32.085 60.074-71.68 60.074-118.784 0-27.99-6.144-50.517-19.114-68.267-12.971-17.749-35.499-36.181-69.632-55.296 25.941-10.24 47.786-21.162 64.17-33.45 43.691-32.768 64.854-78.507 64.854-136.534 0-59.392-22.528-107.861-68.267-145.408-45.056-37.546-104.448-55.978-177.493-55.978-76.459 0-137.216 18.432-183.638 54.613-45.738 36.864-68.949 85.333-68.949 146.09.683 58.027 22.528 103.766 66.219 137.217zm187.733-2.048c-53.248 0-94.89-12.288-124.928-35.499-30.037-23.893-45.056-56.661-45.056-98.304 0-40.277 15.019-73.045 45.739-98.304s70.997-37.547 120.832-37.547c49.834 0 90.112 12.288 120.832 37.547s45.738 58.027 45.738 98.304-15.018 73.045-44.373 96.939c-30.037 25.258-69.632 36.864-118.784 36.864zm-3.413 260.096c-37.547 0-67.584-9.558-91.478-28.672-23.893-19.115-35.498-43.008-35.498-72.363 0-25.941 11.605-47.104 35.498-63.488s54.614-24.576 92.16-24.576 68.267 8.192 91.478 24.576c23.21 16.384 34.816 38.23 34.816 64.853 0 29.355-12.288 53.248-35.499 71.68s-55.296 27.99-91.477 27.99z" horiz-adv-x="1024"/><glyph glyph-name="POKER_NUM_09" unicode="" d="M481.28 114.347c58.027 0 104.448 23.21 138.581 68.949 34.134 45.739 51.883 109.227 53.931 189.781-34.816-63.488-96.256-94.89-185.003-94.89-64.853 0-116.736 19.114-157.013 58.026-40.277 38.912-60.757 89.43-60.757 151.552 0 64.854 21.845 119.467 66.218 162.475 44.374 43.008 100.352 64.853 167.936 64.853 77.142 0 137.216-27.306 181.59-81.237 43.69-54.613 66.218-129.024 66.218-223.915 0-111.274-24.576-197.973-73.728-261.461S562.517 53.59 476.501 53.59c-54.613 0-101.034 12.97-139.264 38.911-38.229 25.942-57.344 58.027-57.344 95.574 0 17.749 5.462 32.768 17.067 45.056 11.605 12.288 25.259 18.432 42.325 18.432 13.654 0 25.259-4.779 35.499-13.654s15.019-19.797 15.019-32.085c0-17.75-8.875-31.403-27.307-39.595 19.797-34.133 59.392-51.882 118.784-51.882zm25.941 534.528c-46.421 0-83.968-14.336-113.322-43.691s-43.008-66.901-43.008-113.323c0-45.056 13.653-81.237 40.96-107.861 27.306-26.624 64.17-40.277 109.909-40.277 48.47 0 86.699 13.653 114.005 40.277 27.307 26.624 41.643 62.805 41.643 108.544 0 47.104-13.653 84.65-41.643 113.323-27.306 28.672-63.488 43.008-108.544 43.008z" horiz-adv-x="1024"/><glyph glyph-name="POKER_NUM_10" unicode="" d="M183.637 288.427l-2.73 269.653c-.683 31.403-4.096 52.565-9.558 63.488-6.144 10.24-17.749 15.701-34.816 15.701-6.144 0-15.018-.682-27.306-2.048-11.606-1.365-20.48-2.048-27.307-2.048-23.893 0-36.181 10.923-36.181 32.768 0 21.846 11.605 32.768 34.133 32.768 7.51 0 19.115-.682 34.816-2.048 15.701-1.365 27.99-2.048 36.864-2.048 19.797 0 36.181.683 49.152 2.048 19.115 2.048 30.72 2.731 35.499 2.731 13.653 0 21.845-4.096 25.258-12.288 2.731-5.461 3.414-15.019 3.414-28.672 0-2.048 0-9.557-.683-22.528-3.413-66.219-4.779-126.293-4.779-180.224V350.55c0-19.115 0-45.057.683-77.142 1.365-38.912 2.048-64.853 2.048-77.141.683-43.008 15.019-64.171 43.008-64.171 6.827 0 17.067.683 30.72 2.048 13.653 1.365 23.893 2.048 30.72 2.048 30.037 0 44.373-10.923 44.373-32.768s-13.653-32.768-40.96-32.768c-10.24 0-20.48.683-30.037 2.048-51.883 6.827-92.16 10.24-118.784 10.24-27.307 0-60.757-2.73-100.352-7.51-22.528-2.73-38.23-4.095-47.787-4.095-25.258-1.366-38.912 9.557-38.912 31.402 0 21.163 15.019 32.086 45.739 32.086 9.557 0 19.115-.683 28.672-2.731 15.019-1.365 23.893-2.048 27.99-2.048 21.845 0 34.815 8.192 40.277 25.259 4.778 17.749 6.826 62.122 6.826 133.12zm545.451-235.52c-78.507 0-140.63 28.672-185.685 86.698-45.056 58.027-67.584 137.899-67.584 239.616 0 103.766 23.21 185.003 70.314 245.078 47.104 60.074 110.592 90.112 192.512 90.112 77.824 0 138.582-28.672 183.638-86.016 45.056-57.344 67.584-135.168 67.584-232.79 0-105.813-23.211-189.781-69.632-250.538-46.422-61.44-110.592-92.16-191.147-92.16zm7.51 593.237c-114.006 0-173.398-85.333-177.494-256v-13.653c0-81.238 15.019-144.043 44.373-188.416 30.038-44.374 71.68-66.219 126.294-66.219 55.978 0 99.669 23.893 131.072 72.363s47.786 115.37 47.786 200.021c0 81.237-15.018 143.36-44.373 187.05-30.037 43.009-72.363 64.854-127.659 64.854z" horiz-adv-x="1024"/><glyph glyph-name="POKER_NUM_11" unicode="" d="M348.843 289.792c0 10.24 4.096 18.432 12.97 25.259-5.461 3.413-10.24 4.778-13.653 4.778-13.653 0-25.259-7.509-35.499-21.845s-15.018-31.403-15.018-50.517c0-34.134 13.653-62.123 40.277-84.651 26.624-22.528 60.757-33.45 102.4-33.45 93.525 0 146.09 42.325 156.33 126.293 4.097 35.498 6.827 83.968 6.827 146.09v177.494c0 45.738-15.701 68.949-47.786 68.949-8.875 0-15.019-.683-19.798-2.048-10.24-2.048-18.432-2.73-25.258-2.73-8.192 0-15.019 2.73-20.48 8.874-5.462 6.144-8.192 12.97-8.192 21.845 0 21.846 13.653 32.768 40.96 32.768 3.413 0 8.192 0 12.97-.682l49.152-6.827c18.432-2.73 37.547-3.413 58.027-3.413 18.432 0 39.595 1.365 63.488 4.778l43.008 5.462c2.73.682 6.827.682 12.97.682 27.307 0 40.96-10.922 40.96-32.768 0-20.48-10.24-30.72-30.037-30.72-6.144 0-14.336.683-25.258 2.731-4.096 1.365-10.923 2.048-19.798 2.048-31.402 0-47.786-23.21-47.786-68.95V401.75c0-92.842-3.414-155.648-10.923-187.05-6.827-27.99-20.48-53.931-41.643-77.142-45.056-50.517-106.496-75.093-184.32-75.093-64.853 0-118.101 17.067-158.378 50.517-40.96 33.451-60.758 77.142-60.758 131.072 0 39.595 12.288 73.046 37.547 100.352s55.979 40.278 93.525 40.278c26.624 0 48.47-6.827 64.854-21.163 17.066-13.653 25.258-32.085 25.258-54.613 0-15.702-4.778-28.672-15.018-40.278-10.24-11.605-21.846-17.066-35.499-17.066-11.605 0-22.528 4.096-31.403 11.605-10.24 6.827-15.018 15.701-15.018 26.624z" horiz-adv-x="1024"/><glyph glyph-name="POKER_NUM_12" unicode="" d="M768.683 473.43c0-145.409-49.835-248.491-149.504-309.931V92.5c0-44.373 17.749-66.218 53.93-66.218 20.48 0 34.134 5.461 41.643 15.701 4.779 7.51 8.192 21.845 9.557 43.008 1.366 29.355 12.288 43.69 33.451 43.69 23.893 0 36.181-15.018 36.181-45.738 0-34.133-10.922-61.44-33.45-82.603-21.846-20.48-51.2-31.402-86.699-31.402-78.507 0-117.419 36.181-117.419 107.861v64.853c-19.114-4.096-38.229-6.826-57.344-6.826-82.602 0-147.456 29.354-196.608 88.064-48.469 60.757-72.362 140.629-72.362 240.298 0 104.448 23.893 186.368 72.362 245.76s115.371 89.43 200.022 89.43c81.92 0 146.773-29.355 194.56-87.382 47.786-58.709 71.68-137.898 71.68-237.568zM619.179 288.426v-49.152c18.432 22.528 31.402 43.69 39.594 64.17 19.115 49.835 27.99 107.179 27.99 172.032 0 81.238-16.384 144.043-48.47 189.099-32.085 44.373-77.824 66.901-135.85 66.901-60.758 0-108.544-23.21-142.678-69.632-34.133-46.421-51.2-111.957-51.2-195.242 0-116.736 28.672-197.291 85.334-243.03-17.067 27.307-25.259 53.248-25.259 78.507 0 30.72 12.288 55.979 37.547 76.459s55.978 31.402 92.16 31.402c37.546 0 66.901-10.922 88.064-32.085 21.845-22.528 32.768-51.883 32.768-89.43zm-119.467-90.795c15.019 0 34.133 3.413 56.661 9.557v70.998c0 48.469-20.48 73.045-61.44 73.045-21.845 0-40.277-6.827-53.93-20.48-14.336-13.653-21.163-31.403-21.163-52.565 0-23.894 7.51-43.691 21.845-58.027 15.019-15.019 34.134-22.528 58.027-22.528z" horiz-adv-x="1024"/><glyph glyph-name="POKER_NUM_13" unicode="" d="M354.987 390.827L617.13 614.059c6.826 5.461 10.24 10.922 10.24 15.701 0 6.827-6.144 10.24-17.75 10.24-4.778 0-8.192 0-10.24-.683-22.528-2.73-38.912-3.413-49.152-3.413-22.528 0-33.45 10.923-33.45 32.768 0 20.48 13.653 30.72 40.277 30.72 14.336 0 27.307-.683 38.23-2.048l49.151-5.461c21.846-2.731 38.23-3.414 49.152-3.414 22.528 0 49.835 2.731 82.603 7.51 17.067 2.73 29.355 3.413 37.547 3.413 23.893 0 35.498-10.24 35.498-31.403 0-21.162-10.922-31.402-32.768-31.402h-33.45c-23.894 0-44.374-7.51-63.488-23.211L543.403 465.92c-7.51-6.827-10.923-12.288-10.923-17.067 0-3.413 3.413-8.192 9.557-15.701l13.654-21.163L704.512 209.92c39.595-53.93 69.632-80.555 89.43-80.555 1.365 0 3.413 0 5.46.683h4.78c17.066 2.048 27.306 2.73 30.72 2.73 22.527 0 33.45-10.24 33.45-31.402 0-21.163-12.288-31.403-36.181-31.403l-46.422 5.462c-23.21 2.73-49.152 3.413-78.506 3.413-33.451 0-68.267-2.048-105.131-5.461-23.893-2.731-37.547-3.414-40.96-3.414-23.21 0-34.133 10.24-34.133 30.038 0 21.845 12.288 32.768 36.181 32.768 6.827 0 16.384-.683 28.672-1.366 23.893-2.048 38.23-3.413 41.643-3.413 15.018 0 22.528 3.413 22.528 9.557 0 4.096-2.731 10.24-8.192 17.75l-173.398 235.52c-3.413 4.778-6.826 6.826-10.24 6.826-2.73 0-6.826-2.73-12.288-7.509l-96.938-85.333c-.683-10.923-.683-23.894-.683-38.23 0-53.93 0-82.602.683-86.698 4.778-35.499 20.48-53.248 46.421-53.248 3.413 0 10.24.682 20.48 2.73s18.432 2.731 25.259 2.731c8.192 0 15.018-2.73 20.48-8.875 5.461-6.144 8.192-12.97 8.192-21.845 0-21.845-13.654-32.768-40.96-32.768h-6.827c-2.73.683-4.779.683-6.827.683L369.323 76.8c-12.971 2.048-33.451 2.73-60.758 2.73-19.797 0-36.181-.682-49.152-2.73l-51.2-7.51c-1.365 0-3.413 0-5.461-.682h-5.461c-27.99 0-41.643 10.923-41.643 32.768 0 20.48 9.557 30.037 28.672 30.037 5.461 0 13.653-1.365 25.259-3.413 7.509-1.365 13.653-2.048 19.797-2.048 30.72 0 46.421 23.21 46.421 69.632 0-1.365 0 20.48.683 64.853v244.395l-.683 64.853c0 46.422-15.701 69.632-46.421 69.632-6.144 0-12.288-.682-19.115-2.048-10.922-1.365-19.114-2.048-25.258-2.048-19.798 0-29.355 10.24-29.355 30.72 0 21.846 13.653 32.768 41.643 32.768 3.413 0 6.826-.682 12.288-.682l44.373-6.144c19.797-2.731 36.181-4.096 49.835-4.096 16.384 0 41.642 2.048 75.093 5.461s52.565 5.461 57.344 5.461c25.941 0 38.912-10.922 38.912-32.768 0-8.874-2.73-15.701-8.192-21.845-5.461-6.144-12.288-8.875-20.48-8.875-6.144 0-14.336.683-25.259 2.731-4.096 1.365-10.922 2.048-19.114 2.048-21.846 0-34.816-7.51-40.96-22.528-5.462-15.019-8.192-52.565-7.51-111.275v-115.37z" horiz-adv-x="1024"/><glyph glyph-name="POKER_NUM_100" unicode="" d="M540.672 822.272c-16.384 15.701-41.643 15.701-58.027 0-84.65-80.555-326.314-313.344-364.544-355.67-34.133-37.546-55.978-86.698-55.978-141.311 0-123.563 96.256-221.867 217.088-222.55 64.17 0 122.197 27.307 162.474 71.68 0-64.17-1.365-92.16-92.16-132.437-24.576-10.923-38.912-38.23-32.768-64.17 5.462-25.26 28.672-43.691 54.614-43.691h279.893c27.307 0 51.2 19.114 56.661 45.738 4.779 25.942-8.192 51.2-32.085 62.123-90.795 40.277-92.843 66.901-92.843 133.12 40.96-45.056 101.035-73.728 167.254-71.68 118.784 2.73 212.309 98.987 212.309 217.77 0 56.662-21.163 107.862-55.979 146.091-38.912 41.643-281.258 274.432-365.909 354.987z" horiz-adv-x="1024"/><glyph glyph-name="POKER_NUM_400" unicode="" d="M544.085 818.859c-17.066 19.797-47.104 19.797-64.17 0L128.34 411.307c-13.653-15.702-13.653-38.912 0-55.296L479.915-51.541c17.066-19.798 47.104-19.798 64.17 0L895.66 356.693c13.653 15.702 13.653 38.912 0 55.296L544.085 818.86z" horiz-adv-x="1024"/><glyph glyph-name="POKER_NUM_200" unicode="" d="M735.232 791.552c-93.525 0-180.907-73.045-223.232-114.688-42.325 41.643-129.707 114.688-223.232 114.688-159.061 0-254.635-92.843-254.635-248.49 0-127.66 117.419-234.155 121.515-237.569l328.363-317.44c15.701-15.018 40.277-15.018 55.296 0l327.68 316.758c4.778 4.778 122.197 111.274 122.197 238.933.683 154.965-94.89 247.808-253.952 247.808z" horiz-adv-x="1024"/><glyph glyph-name="POKER_NUM_300" unicode="" d="M714.752 536.917c55.979 141.312-48.47 296.96-202.752 296.96S253.952 678.23 309.248 536.917c-131.755 17.067-247.125-84.65-247.125-216.405 0-120.15 97.621-217.77 217.77-217.77 64.171 0 121.515 27.989 161.792 71.68 0-64.171-1.365-92.16-92.842-133.12-24.576-10.923-37.547-36.865-32.086-62.806 5.462-25.941 28.672-44.373 55.296-44.373h281.259c26.624 0 49.835 18.432 55.296 44.373 5.461 25.941-8.192 51.883-32.085 62.805-90.795 40.278-92.843 66.902-92.843 133.12 39.595-44.373 97.621-71.68 161.792-71.68 120.15 0 217.77 97.622 217.77 217.771-1.365 131.755-117.418 233.472-248.49 216.405z" horiz-adv-x="1024"/><glyph glyph-name="THIRD_PARTY" unicode="" d="M440.064 573.952c34.56-63.36 58.112-107.392 72.064-135.296 4.48 9.088 9.984 19.968 16.512 32.384v.256l55.936 102.784 3.584 6.656h79.616l-11.392-19.328-87.296-148.48h67.968v-62.592H547.84v-25.472h90.24V281.6c68.736 35.84 128.896 76.928 174.08 119.04-3.968 75.776-36.224 146.56-91.136 199.808-56.448 54.656-130.688 84.864-209.024 84.864-166.016 0-301.056-135.04-301.056-301.056 0-78.72 29.952-152.576 84.48-208.512 53.632 3.328 115.456 16.128 179.968 37.376v48.64h-93.696v63.36h93.696v25.472h-93.696v62.592h70.144l-86.656 148.48-11.264 19.2h82.304l3.84-6.912zM547.84 261.504V239.36a1035.362 1035.362 0 0 1 25.344 11.008c8.192 3.584 16.384 7.296 24.448 11.136H547.84zm-404.352-40.832c10.88-24.192 39.04-35.968 67.584-41.6-24.704 36.224-42.624 76.288-53.12 118.272-14.592-24.576-24.448-52.864-14.464-76.672zM592.64 200.96c-81.92-35.84-164.224-60.544-240.128-72.192 18.688-11.776 38.528-21.376 59.392-28.8 32-11.392 65.792-17.152 100.096-17.152 76.288 0 149.12 28.672 204.928 80.768 47.744 44.544 79.232 102.4 90.752 165.632-60.288-48.384-134.016-92.416-215.04-128.256zm310.784 665.984H120.576c-50.432 0-91.52-41.088-91.52-91.52V-7.552c0-50.432 41.088-91.52 91.52-91.52h782.976c50.432 0 91.52 41.088 91.52 91.52v782.976c-.128 50.432-41.216 91.52-91.648 91.52zm-27.648-473.856V384c0-200.96-163.456-364.416-364.416-364.416-93.952 0-183.168 35.968-251.904 101.376-41.984.512-77.696 6.4-106.24 17.792-32.384 12.928-54.656 32.256-65.92 57.6-21.376 47.872.128 110.976 60.416 177.92v9.088c0 200.576 163.2 363.776 363.776 363.776 94.72 0 183.936-35.968 252.032-101.376 41.984-.512 77.696-6.4 106.24-17.792 32.384-12.8 54.528-32.256 65.92-57.472 21.76-47.36.64-110.208-59.904-177.408zm8.96 154.112l-.128.128-.128.128c-8.704 20.992-34.176 35.584-72.832 42.112 26.112-38.144 44.672-80.768 54.912-125.952 17.536 26.624 29.824 57.728 18.176 83.584z" horiz-adv-x="1024"/><glyph glyph-name="JD_PAY" unicode="" d="M899.072 861.867H124.928c-49.835 0-90.795-40.96-90.795-90.795V-2.389c0-50.518 40.96-91.478 90.795-91.478h773.461c50.518 0 90.795 40.96 90.795 90.795v774.144c.683 49.835-40.277 90.795-90.112 90.795zM159.744 537.6v86.699h325.632V537.6H346.795v-73.728c0-23.21-6.827-40.277-19.798-51.883-12.97-11.605-33.45-17.066-61.44-18.432V419.5c10.923 0 19.115 2.73 23.894 7.509 5.461 4.779 8.192 12.288 8.192 27.307V537.6H159.744zm36.864-18.432h53.248s-15.701-73.728-74.41-124.928h-27.99c21.163 29.355 43.008 73.045 49.152 124.928zm299.69-212.31H348.844v-45.055h111.274v-27.99c-28.672-40.96-62.122-72.362-100.352-93.525 36.182-16.384 81.238-27.307 135.851-33.45V80.212c-75.093 10.24-134.485 23.211-178.176 39.595-44.373-16.384-100.352-30.037-168.619-40.96v26.624c53.931 8.192 97.622 19.797 131.755 33.45-32.085 19.798-61.44 46.422-88.064 79.19h60.075c21.845-23.893 44.373-43.69 68.266-58.71 30.038 17.067 55.979 41.643 79.19 74.411H172.715v27.99h123.562v45.056H148.14v27.989h148.82v38.23h52.565v-38.23H496.3v-27.99zm-26.623 87.382c-59.392 51.2-74.411 124.928-74.411 124.928h53.248c6.827-51.883 28.672-95.573 49.152-124.928h-27.99zm27.989 248.49H148.139v27.307h150.186v20.48h49.152v-20.48h150.187v-27.306zM613.717 77.484h-47.104V265.9c-12.288-6.144-25.941-10.923-42.325-15.702v23.211c36.181 19.115 59.392 53.248 69.632 102.4h49.835c-6.827-29.355-17.067-53.248-30.038-71.68V77.483zm-88.746 316.074c20.48 29.355 42.325 73.046 49.152 125.611h53.93s-15.701-73.728-75.093-125.61h-27.99zm164.522-212.992c-4.096 26.624-12.97 53.931-27.306 81.92h42.325c15.019-25.941 25.259-53.248 30.037-81.92h-45.056zM875.18 297.301h-43.01V160.085c.682-76.458-44.374-83.285-79.19-83.285v12.97c24.576 6.827 28.672 22.529 28.672 58.71v148.821H637.611v28.672h144.042v51.2h50.518v-51.2h43.008v-28.672zm-26.624 96.256c-59.392 51.883-75.094 125.611-75.094 125.611h53.931c6.827-52.565 28.672-96.256 49.152-125.61h-27.99zm27.306 249.856H636.245l-36.181-78.506h79.872v58.026h49.152v-58.709h135.85v-27.307h-135.85v-74.41c0-23.211-6.827-40.96-19.797-51.883-12.971-11.605-33.451-17.067-61.44-18.432v25.941c10.922 0 19.114 2.731 24.576 7.51 5.461 4.778 8.192 11.605 8.192 27.989v83.285h-143.36l49.152 106.496h-61.44v27.307h74.41l9.558 20.48h49.152l-9.558-20.48h227.328v-27.307zm-669.013-45.738h232.107v-32.768H206.848z" horiz-adv-x="1024"/><glyph glyph-name="OTHER_PAY" unicode="" d="M894.293 861.867H129.707c-52.566 0-95.574-43.008-95.574-95.574V1.707c0-52.566 43.008-95.574 95.574-95.574h764.586c52.566 0 95.574 43.008 95.574 95.574v764.586c0 52.566-43.008 95.574-95.574 95.574zM349.525 29.013c-22.528 0-40.96 18.432-40.96 40.96s18.432 40.96 40.96 40.96 40.96-18.432 40.96-40.96-18.432-40.96-40.96-40.96zm163.84 0c-22.528 0-40.96 18.432-40.96 40.96s18.432 40.96 40.96 40.96 40.96-18.432 40.96-40.96-18.432-40.96-40.96-40.96zm163.84 0c-22.528 0-40.96 18.432-40.96 40.96s18.432 40.96 40.96 40.96 40.96-18.432 40.96-40.96-18.432-40.96-40.96-40.96zM552.96 507.563h109.91v-55.296H546.132v-64.171H662.87v-55.979H546.133V192.853H481.28v139.264H364.544v55.979H481.28v64.17H364.544v55.297h109.91L296.96 742.4h78.507l138.581-178.859L652.629 742.4h77.824L552.96 507.563z" horiz-adv-x="1024"/></font>
</defs>
</svg>
